<?xml version="1.0" standalone="no"?>
<!DOCTYPE svg PUBLIC "-//W3C//DTD SVG 20010904//EN"
 "http://www.w3.org/TR/2001/REC-SVG-20010904/DTD/svg10.dtd">
<svg version="1.0" xmlns="http://www.w3.org/2000/svg"
 width="700.000000pt" height="700.000000pt" viewBox="0 0 700.000000 700.000000"
 preserveAspectRatio="xMidYMid meet">
<metadata>
Created by potrace 1.14, written by Peter Selinger 2001-2017
</metadata>
<g transform="translate(0.000000,700.000000) scale(0.100000,-0.100000)"
fill="#000000" stroke="none">
<path d="M4499 6706 c-2 -2 -35 -7 -74 -11 -38 -4 -72 -8 -75 -10 -3 -1 -27
-6 -55 -9 -71 -9 -223 -51 -340 -94 -175 -63 -430 -205 -547 -304 -14 -13 -46
-39 -70 -58 -23 -19 -510 -501 -1081 -1071 -928 -928 -1040 -1043 -1064 -1095
l-26 -58 -1 -1208 -1 -1208 -412 -414 c-460 -460 -457 -457 -458 -581 0 -57 5
-81 28 -127 52 -106 159 -170 275 -164 115 7 120 11 568 459 l413 412 1208 1
1208 0 59 27 c53 24 161 130 1078 1050 561 562 1053 1061 1093 1110 262 309
410 652 471 1092 22 166 6 461 -36 655 -27 124 -25 115 -50 195 -234 727 -868
1269 -1627 1391 -21 3 -49 8 -63 10 -34 6 -415 15 -421 10z m351 -590 c25 -4
59 -9 75 -12 97 -15 253 -65 360 -115 284 -132 543 -385 685 -669 142 -282
189 -641 124 -945 -9 -38 -17 -77 -19 -86 -17 -79 -131 -344 -168 -387 -6 -8
-16 -22 -22 -32 -55 -94 -122 -167 -527 -574 l-377 -380 -821 0 c-451 -1 -820
2 -820 5 0 3 351 356 780 785 866 866 835 831 834 959 -1 119 -57 211 -162
262 -80 39 -175 39 -252 0 -45 -23 -296 -269 -1420 -1393 l-1365 -1365 -3 823
-2 823 987 986 c598 597 1018 1008 1063 1042 202 149 465 252 700 274 36 3 66
7 68 8 6 5 240 -3 282 -9z m-460 -3786 c0 -3 -129 -134 -287 -292 l-288 -288
-826 0 -826 0 286 285 c157 157 291 289 298 293 12 8 1643 10 1643 2z"/>
</g>
</svg>
